<svg xmlns="http://www.w3.org/2000/svg" viewBox="0 0 640 480">
  <g stroke-width="1pt">
    <path fill="#229e45" d="M0 0h640v480H0z"/>
    <path fill="#f8e509" d="M321.4 436l301.5-195.7L319.6 44 17.1 240.7 321.4 436z"/>
    <path fill="#2b49a3" d="M452.8 240c0 70.3-57.1 127.3-127.6 127.3A127.4 127.4 0 1 1 452.8 240z"/>
    <path fill="#ffffef" d="M283.3 316.3l-4-2.3-4 2 .9-4.5-3.2-3.4 4.5-.6 2.2-4 1.9 4.2 4.4.8-3.3 3m86 26.3l-3.9-2.3-4 2 .8-4.5-3.1-3.3 4.5-.6 2.1-4.1 2 4.2 4.4.8-3.4 3.1m-36.2-30l-3.4-2-3.5 1.8.8-3.9-2.8-2.9 4-.5 1.8-3.6 1.6 3.7 3.9.7-3 2.7m87-8.5l-3.4-2-3.5 1.8.8-3.9-2.7-2.8 3.9-.6 1.8-3.5 1.6 3.6 3.8.7-2.9 2.7m-87.3-22l-4-2.2-4 2 .8-4.6-3.1-3.3 4.5-.6 2.1-4.1 2 4.2 4.4.8-3.4 3.2m-104.6-35.2l-4-2.2-4 2 1-4.6-3.3-3.3 4.6-.6 2-4.1 2 4.2 4.4.8-3.3 3.2m13.3 57.2l-4-2.3-4 2 .9-4.5-3.2-3.3 4.5-.6 2.1-4.1 2 4.2 4.4.8-3.3 3m132-67.3l-3.6-2-3.6 1.8.8-4-2.8-3 4-.5 1.9-3.6 1.7 3.8 4 .7-3 2.8m-6.7 38.3l-2.7-1.6-2.9 1.4.6-3.2-2.2-2.3 3.2-.4 1.5-2.8 1.3 3 3 .5-2.2 2.2m-142.2 50.4l-2.7-1.5-2.7 1.3.6-3-2.1-2.2 3-.4 1.4-2.7 1.3 2.8 3 .5-2.3 2.1m200.2 15.3l-2.2-1.1-2.2 1 .5-2.3-1.7-1.6 2.4-.3 1.2-2 1 2 2.5.5-1.9 1.5"/>
    <path fill="#ffffef" d="M219.3 287.6l-2.7-1.5-2.7 1.3.6-3-2.1-2.2 3-.4 1.4-2.7 1.3 2.8 3 .5-2.3 2.1m41.3 3l-2.2-1.1-2.2 1 .5-2.3-1.7-1.6 2.4-.3 1.2-2 1 2 2.5.5-1.9 1.5m-37.4-16l-2.2-1.1-2.2 1 .5-2.3-1.7-1.6 2.4-.3 1.2-2 1 2 2.5.5-1.9 1.5m65.1-38.3l-2.2-1.1-2.2 1 .5-2.3-1.7-1.6 2.4-.3 1.2-2 1 2 2.5.5-1.9 1.5m-57.6-4.1l-2-1-2 .9.4-2.2-1.5-1.5 2.2-.3 1.1-1.9.9 2 2.3.4-1.7 1.4m32.2-3.7l-2-1-2 .9.4-2.2-1.5-1.5 2.2-.3 1.1-1.9.9 2 2.3.4-1.7 1.4m-58.4-7.8l-2-1-2 .9.4-2.2-1.5-1.5 2.2-.3 1.1-1.9.9 2 2.3.4-1.7 1.4m167.2 45.4l-2-1-2 .9.4-2.2-1.5-1.5 2.2-.3 1.1-1.9.9 2 2.3.4-1.7 1.4m-75.4-44.6l-2-1-2 .9.4-2.2-1.5-1.5 2.2-.3 1.1-1.9.9 2 2.3.4-1.7 1.4m-56.9 30.2l-1.8-.9-1.8.8.4-2-1.4-1.3 2-.3 1-1.7.8 1.8 2 .4-1.5 1.2m-4.7-29.9l-1.8-.9-1.8.8.4-2-1.4-1.3 2-.3 1-1.7.8 1.8 2 .4-1.5 1.2m109 73.5l-1.8-.9-1.8.8.4-2-1.4-1.3 2-.3 1-1.7.8 1.8 2 .4-1.5 1.2m-92.4-16.9l-1.8-.9-1.8.8.4-2-1.4-1.3 2-.3 1-1.7.8 1.8 2 .4-1.5 1.2m-15.3 13.6l-1.8-.9-1.8.8.4-2-1.4-1.3 2-.3 1-1.7.8 1.8 2 .4-1.5 1.2m-13.8 73.6l-1.8-.9-1.8.8.4-2-1.4-1.3 2-.3 1-1.7.8 1.8 2 .4-1.5 1.2m-28.4-44.9l-1.8-.9-1.8.8.4-2-1.4-1.3 2-.3 1-1.7.8 1.8 2 .4-1.5 1.2m224.5-19.8l-1.8-.9-1.8.8.4-2-1.4-1.3 2-.3 1-1.7.8 1.8 2 .4-1.5 1.2m-12.1 13.3l-1.8-.9-1.8.8.4-2-1.4-1.3 2-.3 1-1.7.8 1.8 2 .4-1.5 1.2m-10.8 53.2l-1.8-.9-1.8.8.4-2-1.4-1.3 2-.3 1-1.7.8 1.8 2 .4-1.5 1.2m-101.3-35.7l-1.8-.9-1.8.8.4-2-1.4-1.3 2-.3 1-1.7.8 1.8 2 .4-1.5 1.2m-24.6 8.2l-1.8-.9-1.8.8.4-2-1.4-1.3 2-.3 1-1.7.8 1.8 2 .4-1.5 1.2m-18.8-1.2l-1.8-.9-1.8.8.4-2-1.4-1.3 2-.3 1-1.7.8 1.8 2 .4-1.5 1.2m-5.9-14.5l-1.8-.9-1.8.8.4-2-1.4-1.3 2-.3 1-1.7.8 1.8 2 .4-1.5 1.2m-5.9-10.8l-1.8-.9-1.8.8.4-2-1.4-1.3 2-.3 1-1.7.8 1.8 2 .4-1.5 1.2m-11.8 0l-1.8-.9-1.8.8.4-2-1.4-1.3 2-.3 1-1.7.8 1.8 2 .4-1.5 1.2m-10.7 0l-1.8-.9-1.8.8.4-2-1.4-1.3 2-.3 1-1.7.8 1.8 2 .4-1.5 1.2m-9.5 0l-1.8-.9-1.8.8.4-2-1.4-1.3 2-.3 1-1.7.8 1.8 2 .4-1.5 1.2"/>
  </g>
</svg>
