<?xml version="1.0" encoding="UTF-8"?>
<svg width="20" height="15" viewBox="0 0 20 15" fill="none" xmlns="http://www.w3.org/2000/svg">
  <rect width="20" height="15" fill="#B22234"/>
  <rect width="20" height="1.5" fill="#FFFFFF"/>
  <rect y="3" width="20" height="1.5" fill="#FFFFFF"/>
  <rect y="6" width="20" height="1.5" fill="#FFFFFF"/>
  <rect y="9" width="20" height="1.5" fill="#FFFFFF"/>
  <rect y="12" width="20" height="1.5" fill="#FFFFFF"/>
  <rect width="8" height="7.5" fill="#3C3B6E"/>
  <rect x="1" y="1" width="1" height="1" fill="#FFFFFF"/>
  <rect x="3" y="1" width="1" height="1" fill="#FFFFFF"/>
  <rect x="5" y="1" width="1" height="1" fill="#FFFFFF"/>
  <rect x="7" y="1" width="1" height="1" fill="#FFFFFF"/>
  <rect x="2" y="2" width="1" height="1" fill="#FFFFFF"/>
  <rect x="4" y="2" width="1" height="1" fill="#FFFFFF"/>
  <rect x="6" y="2" width="1" height="1" fill="#FFFFFF"/>
  <rect x="1" y="3" width="1" height="1" fill="#FFFFFF"/>
  <rect x="3" y="3" width="1" height="1" fill="#FFFFFF"/>
  <rect x="5" y="3" width="1" height="1" fill="#FFFFFF"/>
  <rect x="7" y="3" width="1" height="1" fill="#FFFFFF"/>
  <rect x="2" y="4" width="1" height="1" fill="#FFFFFF"/>
  <rect x="4" y="4" width="1" height="1" fill="#FFFFFF"/>
  <rect x="6" y="4" width="1" height="1" fill="#FFFFFF"/>
  <rect x="1" y="5" width="1" height="1" fill="#FFFFFF"/>
  <rect x="3" y="5" width="1" height="1" fill="#FFFFFF"/>
  <rect x="5" y="5" width="1" height="1" fill="#FFFFFF"/>
  <rect x="7" y="5" width="1" height="1" fill="#FFFFFF"/>
</svg> 